<?xml version="1.0" encoding="UTF-8" standalone="no"?>
<svg
   xmlns:dc="http://purl.org/dc/elements/1.1/"
   xmlns:cc="http://creativecommons.org/ns#"
   xmlns:rdf="http://www.w3.org/1999/02/22-rdf-syntax-ns#"
   xmlns:svg="http://www.w3.org/2000/svg"
   xmlns="http://www.w3.org/2000/svg"
   xmlns:sodipodi="http://sodipodi.sourceforge.net/DTD/sodipodi-0.dtd"
   xmlns:inkscape="http://www.inkscape.org/namespaces/inkscape"
   version="1.1"
   width="10"
   height="20"
   viewBox="0 0 10 20"
   id="svg3725"
   sodipodi:docname="switcherDown.svg"
   inkscape:version="0.92.4 (5da689c313, 2019-01-14)">
  <metadata
     id="metadata3731">
    <rdf:RDF>
      <cc:Work
         rdf:about="">
        <dc:format>image/svg+xml</dc:format>
        <dc:type
           rdf:resource="http://purl.org/dc/dcmitype/StillImage" />
        <dc:title></dc:title>
      </cc:Work>
    </rdf:RDF>
  </metadata>
  <defs
     id="defs3729" />
  <sodipodi:namedview
     pagecolor="#ffffff"
     bordercolor="#666666"
     borderopacity="1"
     objecttolerance="10"
     gridtolerance="10"
     guidetolerance="10"
     inkscape:pageopacity="0"
     inkscape:pageshadow="2"
     inkscape:window-width="1920"
     inkscape:window-height="1013"
     id="namedview3727"
     showgrid="false"
     inkscape:zoom="34.166667"
     inkscape:cx="11.995122"
     inkscape:cy="8.009756"
     inkscape:window-x="-9"
     inkscape:window-y="-9"
     inkscape:window-maximized="1"
     inkscape:current-layer="svg3725" />
  <path
     d="M 0,15 V 5 A 5,5 0 0 1 5,0 5,5 0 0 1 10,5 V 15 A 5,5 0 0 1 5,20 5,5 0 0 1 0,15 m 7.9999996,0 A 3,3 0 0 0 5,12 3,3 0 0 0 2,15 3,3 0 0 0 5,18 3,3 0 0 0 7.9999996,15 Z"
     style="fill:#333"
     id="path3723"
     inkscape:connector-curvature="0" />
</svg>
